Coordinates
version=1
nRows=45
nColumns=24
inDegrees=yes

Units are S.I. units (second, meters, Newtons, ...)
If the header above contains a line with 'inDegrees', this indicates whether rotational values are in degrees (yes) or radians (no).

endheader
time	pelvis_tilt	pelvis_list	pelvis_rotation	pelvis_tx	pelvis_ty	pelvis_tz	hip_flexion_r	hip_adduction_r	hip_rotation_r	knee_angle_r	ankle_angle_r	subtalar_angle_r	mtp_angle_r	hip_flexion_l	hip_adduction_l	hip_rotation_l	knee_angle_l	ankle_angle_l	subtalar_angle_l	mtp_angle_l	lumbar_extension	lumbar_bending	lumbar_rotation
4.400000	11.156692	1.766371	-180.642993	0.238914	0.851005	-1.206705	18.638260	-10.487820	-34.819975	-12.148338	-0.467948	14.221591	0.000000	18.537965	-14.875335	-31.434781	-12.179224	0.435780	17.431052	0.000000	3.622845	3.049246	-0.871480
4.405000	11.138395	1.752015	-180.625097	0.238794	0.851033	-1.206553	18.634906	-10.529182	-34.785804	-12.207652	-0.431090	14.157432	0.000000	18.504184	-14.837322	-31.405995	-12.160219	0.486095	17.415124	0.000000	3.624051	3.036972	-0.872561
4.410000	11.120726	1.739445	-180.592900	0.238698	0.851046	-1.206452	18.619590	-10.562658	-34.754328	-12.242992	-0.403781	14.097225	0.000000	18.478615	-14.817164	-31.403861	-12.176090	0.545439	17.476428	0.000000	3.624933	3.011939	-0.903859
4.415000	11.102545	1.720646	-180.559011	0.238619	0.851018	-1.206397	18.603579	-10.600222	-34.719729	-12.277417	-0.395285	14.056893	0.000000	18.467917	-14.794347	-31.424611	-12.195763	0.563006	17.512849	0.000000	3.583198	3.027370	-1.095352
4.420000	11.066870	1.712968	-180.539279	0.238483	0.851052	-1.206286	18.576593	-10.631409	-34.693000	-12.331797	-0.388425	13.990133	0.000000	18.416932	-14.772963	-31.434438	-12.182626	0.599755	17.581326	0.000000	3.601279	2.969270	-0.973704
4.425000	11.060730	1.713059	-180.541935	0.238408	0.851049	-1.206194	18.592369	-10.650713	-34.658147	-12.388397	-0.380651	13.979070	0.000000	18.414445	-14.766914	-31.456454	-12.182335	0.580040	17.564784	0.000000	3.576311	3.018789	-1.078626
4.430000	11.052833	1.711883	-180.536299	0.238282	0.851079	-1.206058	18.604313	-10.676063	-34.632737	-12.457232	-0.310122	13.908707	0.000000	18.395611	-14.763667	-31.452713	-12.207127	0.618841	17.598784	0.000000	3.623865	2.978993	-0.961360
4.435000	11.035417	1.698364	-180.519227	0.238189	0.851086	-1.205942	18.597606	-10.709171	-34.609555	-12.501776	-0.269370	13.845204	0.000000	18.383508	-14.744853	-31.451882	-12.229261	0.626852	17.618344	0.000000	3.624101	2.971342	-0.982579
4.440000	11.012491	1.684313	-180.488562	0.238109	0.851087	-1.205905	18.568065	-10.732975	-34.558472	-12.514135	-0.271290	13.807447	0.000000	18.377807	-14.732147	-31.433668	-12.275350	0.665261	17.638958	0.000000	3.614535	2.937248	-1.022492
4.445000	10.991284	1.679816	-180.460647	0.238059	0.851090	-1.205886	18.549818	-10.751564	-34.532098	-12.546203	-0.276383	13.786078	0.000000	18.381821	-14.733342	-31.406397	-12.325025	0.672361	17.654943	0.000000	3.602636	2.911795	-1.052584
4.450000	10.966160	1.673146	-180.435373	0.237972	0.851107	-1.205812	18.518254	-10.747277	-34.405145	-12.534662	-0.285873	13.525218	0.000000	18.361303	-14.691397	-31.256628	-12.291466	0.674527	17.473037	0.000000	3.590070	2.896877	-1.085516
4.455000	10.954789	1.678303	-180.436762	0.237882	0.851099	-1.205737	18.523390	-10.757132	-34.407487	-12.582225	-0.269257	13.510894	0.000000	18.361514	-14.703257	-31.265279	-12.332322	0.679170	17.451445	0.000000	3.595450	2.904636	-1.081117
4.460000	10.945116	1.677717	-180.441528	0.237785	0.851103	-1.205657	18.527525	-10.769336	-34.383814	-12.624685	-0.222572	13.483692	0.000000	18.356620	-14.718343	-31.257080	-12.398050	0.761518	17.475540	0.000000	3.606453	2.903783	-1.058085
4.465000	10.928616	1.673283	-180.442409	0.237710	0.851101	-1.205608	18.519148	-10.781430	-34.371399	-12.649920	-0.230541	13.478651	0.000000	18.365681	-14.719191	-31.242251	-12.444851	0.749243	17.465528	0.000000	3.599190	2.903293	-1.071710
4.470000	10.910197	1.657816	-180.422757	0.237632	0.851085	-1.205581	18.490601	-10.801530	-34.346134	-12.649018	-0.239843	13.454766	0.000000	18.363212	-14.714785	-31.204161	-12.519846	0.839953	17.486230	0.000000	3.594183	2.873761	-1.104106
4.475000	10.893641	1.651835	-180.414325	0.237535	0.851108	-1.205564	18.467373	-10.809343	-34.335027	-12.652810	-0.255573	13.449216	0.000000	18.371576	-14.722186	-31.187257	-12.585583	0.844331	17.488246	0.000000	3.594638	2.851446	-1.099038
4.480000	10.868859	1.666555	-180.418420	0.237424	0.851120	-1.205536	18.435863	-10.792418	-34.323364	-12.651520	-0.240222	13.414544	0.000000	18.366077	-14.749406	-31.153968	-12.644286	0.918018	17.480026	0.000000	3.586553	2.859845	-1.086468
4.485000	10.842226	1.689300	-180.442997	0.237335	0.851139	-1.205502	18.408767	-10.763848	-34.304853	-12.650096	-0.224708	13.393419	0.000000	18.357367	-14.791467	-31.131743	-12.707135	0.944966	17.447436	0.000000	3.582150	2.887547	-1.044949
4.490000	10.828040	1.692109	-180.461683	0.237229	0.851169	-1.205455	18.390903	-10.759314	-34.307693	-12.650162	-0.221447	13.382794	0.000000	18.357877	-14.805483	-31.106103	-12.769218	0.965768	17.429872	0.000000	3.586030	2.892328	-1.021491
4.495000	10.818991	1.702086	-180.467417	0.237126	0.851194	-1.205471	18.352691	-10.734564	-34.292504	-12.603892	-0.226302	13.382005	0.000000	18.367049	-14.826975	-31.046568	-12.832257	1.040914	17.377975	0.000000	3.590753	2.900525	-1.041935
4.500000	10.800744	1.689832	-180.464691	0.237070	0.851196	-1.205487	18.315678	-10.740981	-34.290096	-12.578717	-0.229888	13.382861	0.000000	18.377647	-14.832742	-31.028452	-12.913590	1.048538	17.358982	0.000000	3.588012	2.878297	-1.040074
4.505000	10.782737	1.687279	-180.478316	0.237019	0.851214	-1.205479	18.285122	-10.734273	-34.282512	-12.550995	-0.236510	13.389013	0.000000	18.378225	-14.844964	-31.006237	-12.972434	1.077723	17.336097	0.000000	3.579159	2.872046	-1.020504
4.510000	10.756690	1.696749	-180.494048	0.236901	0.851254	-1.205492	18.247379	-10.716174	-34.279127	-12.539929	-0.221509	13.389055	0.000000	18.364335	-14.870401	-30.976226	-13.031899	1.125327	17.307700	0.000000	3.565130	2.879998	-1.006366
4.515000	10.738422	1.706675	-180.530969	0.236795	0.851286	-1.205462	18.226803	-10.697201	-34.286620	-12.532370	-0.237351	13.398949	0.000000	18.352724	-14.896310	-30.953142	-13.077510	1.150062	17.243055	0.000000	3.553530	2.902613	-0.976040
4.520000	10.735003	1.701556	-180.550051	0.236713	0.851275	-1.205403	18.219020	-10.703164	-34.288391	-12.528972	-0.236069	13.398592	0.000000	18.344491	-14.895189	-30.947870	-13.096050	1.150066	17.239948	0.000000	3.568747	2.908692	-0.977519
4.525000	10.713034	1.686612	-180.565712	0.236626	0.851286	-1.205445	18.172193	-10.700312	-34.274825	-12.477942	-0.237139	13.429419	0.000000	18.347771	-14.902979	-30.923001	-13.192927	1.232308	17.159148	0.000000	3.548531	2.872944	-0.951702
4.530000	10.702459	1.673379	-180.571672	0.236573	0.851277	-1.205470	18.148114	-10.705784	-34.271224	-12.452556	-0.238608	13.438672	0.000000	18.351260	-14.901101	-30.901930	-13.242051	1.242767	17.144991	0.000000	3.546778	2.847287	-0.944914
4.535000	10.691758	1.673696	-180.606584	0.236506	0.851284	-1.205496	18.136647	-10.693650	-34.256320	-12.446008	-0.236799	13.467618	0.000000	18.341051	-14.911453	-30.859288	-13.281099	1.323103	17.096582	0.000000	3.539716	2.849096	-0.917689
4.540000	10.679009	1.683224	-180.650596	0.236429	0.851318	-1.205489	18.129281	-10.677277	-34.236271	-12.450406	-0.222556	13.491582	0.000000	18.331667	-14.935561	-30.849413	-13.320952	1.313662	17.029007	0.000000	3.535203	2.868645	-0.868961
4.545000	10.679707	1.700481	-180.713313	0.236373	0.851326	-1.205506	18.142473	-10.647331	-34.232472	-12.457573	-0.204388	13.540942	0.000000	18.320920	-14.962264	-30.815438	-13.339069	1.340398	16.878932	0.000000	3.539810	2.899666	-0.805469
4.550000	10.669553	1.688064	-180.733863	0.236369	0.851289	-1.205516	18.136533	-10.658667	-34.220724	-12.460109	-0.205619	13.554353	0.000000	18.324510	-14.961859	-30.790235	-13.387393	1.363705	16.853277	0.000000	3.537989	2.892120	-0.803610
4.555000	10.673847	1.664620	-180.766944	0.236308	0.851271	-1.205526	18.144784	-10.677069	-34.199163	-12.462349	-0.215993	13.584161	0.000000	18.326297	-14.946460	-30.771555	-13.428246	1.440185	16.780564	0.000000	3.544511	2.868731	-0.787442
4.560000	10.669588	1.658127	-180.782808	0.236270	0.851256	-1.205552	18.147221	-10.681480	-34.195746	-12.472578	-0.223006	13.591567	0.000000	18.334135	-14.953327	-30.755811	-13.472679	1.445248	16.762579	0.000000	3.547167	2.858504	-0.773622
4.565000	10.664193	1.662060	-180.826453	0.236227	0.851245	-1.205553	18.162137	-10.675095	-34.172471	-12.498226	-0.230221	13.616564	0.000000	18.334316	-14.974597	-30.756362	-13.510730	1.457670	16.706474	0.000000	3.539073	2.869587	-0.736138
4.570000	10.655936	1.669937	-180.874076	0.236225	0.851225	-1.205556	18.176084	-10.663414	-34.142757	-12.522538	-0.190069	13.637366	0.000000	18.332044	-14.999498	-30.746436	-13.549908	1.485764	16.651260	0.000000	3.532012	2.880245	-0.669933
4.575000	10.681452	1.640718	-180.913357	0.236218	0.851202	-1.205533	18.226300	-10.690177	-34.110997	-12.551628	-0.317009	13.817423	0.000000	18.346879	-14.940448	-30.563636	-13.511920	1.449113	16.238461	0.000000	3.545850	2.860922	-0.667137
4.580000	10.665819	1.632743	-180.936915	0.236200	0.851188	-1.205545	18.221138	-10.706682	-34.133595	-12.567692	-0.228171	13.781272	0.000000	18.342562	-14.948719	-30.570701	-13.573433	1.490611	16.226259	0.000000	3.531001	2.848537	-0.640456
4.585000	10.653146	1.613005	-180.958387	0.236203	0.851166	-1.205571	18.225165	-10.724338	-34.092495	-12.593609	-0.220800	13.784810	0.000000	18.335583	-14.943990	-30.583136	-13.617483	1.544397	16.218071	0.000000	3.508746	2.823144	-0.653548
4.590000	10.639725	1.609029	-181.001513	0.236220	0.851143	-1.205601	18.241950	-10.730807	-34.045533	-12.639149	-0.217578	13.797947	0.000000	18.331706	-14.963576	-30.594148	-13.669661	1.558971	16.207953	0.000000	3.452361	2.866629	-0.737140
4.595000	10.626816	1.614089	-181.043528	0.236217	0.851165	-1.205607	18.255900	-10.726762	-34.038126	-12.677829	-0.184886	13.792662	0.000000	18.332979	-14.986873	-30.582013	-13.713064	1.559712	16.184518	0.000000	3.423258	2.871874	-0.703253
4.600000	10.617319	1.621395	-181.093499	0.236188	0.851174	-1.205598	18.271797	-10.719235	-33.998197	-12.715123	-0.136626	13.798804	0.000000	18.322695	-15.011051	-30.593367	-13.751279	1.594463	16.109352	0.000000	3.405699	2.885738	-0.641665
4.605000	10.607045	1.614457	-181.108798	0.236208	0.851165	-1.205618	18.279567	-10.730207	-33.980222	-12.741886	-0.135134	13.798884	0.000000	18.331542	-15.019138	-30.582713	-13.803684	1.598096	16.094692	0.000000	3.380624	2.876354	-0.652586
4.610000	10.593383	1.595754	-181.111878	0.236225	0.851154	-1.205659	18.280157	-10.751327	-33.923583	-12.769426	-0.109476	13.797266	0.000000	18.346361	-15.013103	-30.554127	-13.874739	1.666221	16.040847	0.000000	3.352589	2.844925	-0.697529
4.615000	10.578005	1.592901	-181.117604	0.236241	0.851163	-1.205676	18.284752	-10.763000	-33.905455	-12.809920	-0.115279	13.791471	0.000000	18.356005	-15.022578	-30.528402	-13.927486	1.671223	16.030757	0.000000	3.324905	2.831952	-0.687444
4.620000	10.568460	1.593727	-181.143793	0.236262	0.851157	-1.205662	18.313027	-10.771522	-33.863933	-12.875934	-0.053664	13.750190	0.000000	18.368099	-15.039242	-30.483801	-13.987991	1.737737	15.975114	0.000000	3.301296	2.829731	-0.640717
